<svg id="profile" viewBox="0 0 44 44" fill="none" xmlns="http://www.w3.org/2000/svg">
    <path opacity="0.4" d="M22 8.66669C18.5067 8.66669 15.6667 11.5067 15.6667 15C15.6667 18.4267 18.3467 21.2 21.84 21.32C21.9467 21.3067 22.0534 21.3067 22.1334 21.32C22.16 21.32 22.1734 21.32 22.2 21.32C22.2134 21.32 22.2134 21.32 22.2267 21.32C25.64 21.2 28.32 18.4267 28.3334 15C28.3334 11.5067 25.4934 8.66669 22 8.66669Z" fill="#F4F3F8"/>
    <path d="M28.7733 24.8667C25.0533 22.3867 18.9867 22.3867 15.24 24.8667C13.5467 26 12.6133 27.5333 12.6133 29.1733C12.6133 30.8133 13.5467 32.3333 15.2267 33.4533C17.0933 34.7067 19.5467 35.3333 22 35.3333C24.4533 35.3333 26.9067 34.7067 28.7733 33.4533C30.4533 32.32 31.3867 30.8 31.3867 29.1467C31.3733 27.5067 30.4533 25.9867 28.7733 24.8667Z" fill="#F4F3F8"/>
</svg>